<?xml version="1.0" encoding="utf-8"?>
<!-- Generator: Adobe Illustrator 19.0.0, SVG Export Plug-In . SVG Version: 6.00 Build 0)  -->
<svg version="1.1" id="Layer_1" xmlns="http://www.w3.org/2000/svg" xmlns:xlink="http://www.w3.org/1999/xlink" x="0px" y="0px"
	 viewBox="0 0 262 188.9" style="enable-background:new 0 0 262 188.9;" xml:space="preserve">
<style type="text/css">
	.st0{fill:#010101;}
</style>
<g id="XMLID_1495_">
	<g id="XMLID_1498_">
		<g id="XMLID_1499_">
			<path id="XMLID_2775_" class="st0" d="M216.1,122.6H46.2c-6.6,0-11.9-5.4-11.9-11.9V11.9C34.3,5.3,39.6,0,46.2,0h169.9
				c6.6,0,11.9,5.3,11.9,11.9v98.8C228,117.3,222.7,122.6,216.1,122.6z M46.2,3.9c-4.4,0-8,3.6-8,8v98.8c0,4.4,3.6,8,8,8h169.9
				c4.4,0,8-3.6,8-8V11.9c0-4.4-3.6-8-8-8H46.2z"/>
		</g>
		<path id="XMLID_2771_" class="st0" d="M217.2,112.3h-172c-0.5,0-1-0.4-1-1V11.3c0-0.5,0.4-1,1-1h172c0.5,0,1,0.4,1,1v99.9
			C218.2,111.8,217.7,112.3,217.2,112.3z M46.1,110.3h170.1v-98H46.1L46.1,110.3L46.1,110.3z"/>
	</g>
	<g id="XMLID_1500_">
		<path id="XMLID_2767_" class="st0" d="M249.6,180.3H12.4c-6.3,0-10.7-1.5-12-4.1c-0.4-0.8-0.9-2.5,0.6-4.4l34.6-46.2
			c2.6-3.5,9.2-6.2,15.1-6.2h160.7c5.8,0,12.5,2.7,15.1,6.2l34.6,46.2c1.4,1.9,1,3.6,0.6,4.4C259.7,179.9,252.6,180.3,249.6,180.3z
			 M50.6,123.3c-4.6,0-10,2.1-11.9,4.6L4.1,174.1c-0.1,0.2-0.2,0.3-0.2,0.4c0.2,0.5,2.6,1.9,8.5,1.9h237.2c5.9,0,8.3-1.5,8.5-2l0,0
			c0,0-0.1-0.1-0.2-0.3l-34.6-46.2c-1.9-2.5-7.3-4.6-11.9-4.6L50.6,123.3L50.6,123.3z"/>
	</g>
	<path id="XMLID_2765_" class="st0" d="M153.8,99.1h-45.2c-0.5,0-1-0.4-1-1s0.4-1,1-1h45.2c0.5,0,1,0.4,1,1S154.3,99.1,153.8,99.1z"
		/>
	<g id="XMLID_1505_">
		<path id="XMLID_2764_" class="st0" d="M130.8,73.4c0.5,0,1,0.4,1,1v16.9c0,0.5-0.4,1-1,1c-0.5,0-1-0.4-1-1V74.4
			C129.8,73.8,130.3,73.4,130.8,73.4z"/>
		<path id="XMLID_2763_" class="st0" d="M130.8,73.4c0.3,0,0.5,0.1,0.7,0.3l5.6,5.6c0.4,0.4,0.4,1,0,1.4c-0.4,0.4-1,0.4-1.4,0
			l-4.9-4.9l-5,4.9c-0.4,0.4-1,0.4-1.4,0c-0.4-0.4-0.4-1,0-1.4l5.6-5.6C130.3,73.5,130.6,73.4,130.8,73.4z"/>
	</g>
	<path id="XMLID_2759_" class="st0" d="M238.2,159.6H25c-0.4,0-0.7-0.2-0.9-0.5c-0.2-0.3-0.1-0.7,0.1-1l19.4-28.5
		c0.2-0.3,0.5-0.4,0.8-0.4h174.3c0.3,0,0.6,0.2,0.8,0.4l19.4,28.5c0.2,0.3,0.2,0.7,0.1,1C238.9,159.4,238.5,159.6,238.2,159.6z
		 M26.9,157.7h209.4l-18-26.6H45L26.9,157.7z"/>
	<g id="XMLID_1508_">
		<path id="XMLID_2758_" class="st0" d="M145.3,71c-0.5,0-1.1-0.2-1.5-0.7c-0.2-0.2-4.5-4.9-13-4.9c-8.6,0-12.9,4.7-13,4.9
			c-0.7,0.8-1.9,0.9-2.8,0.2c-0.8-0.7-0.9-1.9-0.2-2.7c0.2-0.3,5.5-6.3,16-6.3c10.4,0,15.8,6,16,6.3c0.7,0.8,0.6,2-0.2,2.8
			C146.2,70.9,145.8,71,145.3,71z"/>
		<path id="XMLID_2757_" class="st0" d="M151.4,63.8c-0.5,0-1.1-0.2-1.5-0.7c-0.2-0.2-6.5-6.9-19.1-6.9s-19,6.8-19.1,7
			c-0.7,0.8-2,0.9-2.8,0.2c-0.8-0.7-0.9-1.9-0.2-2.8c0.3-0.3,7.6-8.3,22-8.3c14.4,0,21.7,7.9,22,8.3c0.7,0.8,0.6,2-0.2,2.8
			C152.3,63.6,151.8,63.8,151.4,63.8z"/>
		<path id="XMLID_2756_" class="st0" d="M157.4,56.5c-0.5,0-1.1-0.2-1.4-0.6c-0.1-0.2-8.6-9-25.2-9s-25,8.8-25.2,9
			c-0.7,0.8-2,0.9-2.8,0.1c-0.8-0.7-0.9-2-0.1-2.8c0.4-0.4,9.7-10.3,28.1-10.3s27.7,9.8,28.1,10.3c0.7,0.8,0.7,2-0.1,2.8
			C158.4,56.3,157.9,56.5,157.4,56.5z"/>
		<path id="XMLID_2755_" class="st0" d="M163.5,49.2c-0.5,0-1-0.2-1.4-0.6c-0.1-0.1-10.7-11-31.2-11s-31.1,10.9-31.2,11
			c-0.7,0.8-2,0.8-2.8,0.1C96,48,96,46.7,96.7,46c0.5-0.5,11.7-12.3,34.1-12.3c22.4,0,33.6,11.8,34.1,12.3c0.7,0.8,0.7,2-0.1,2.8
			C164.4,49.1,163.9,49.2,163.5,49.2z"/>
		<path id="XMLID_2754_" class="st0" d="M169.5,42c-0.5,0-1-0.2-1.4-0.6c-0.1-0.1-12.7-13-37.3-13s-37.2,12.9-37.3,13
			c-0.7,0.8-2,0.8-2.8,0.1s-0.8-2-0.1-2.8c0.6-0.6,13.8-14.3,40.1-14.3s39.6,13.7,40.1,14.3c0.7,0.8,0.7,2-0.1,2.8
			C170.5,41.8,170,42,169.5,42z"/>
	</g>
	<g id="XMLID_1511_">
		<path id="XMLID_2750_" class="st0" d="M249.6,188.9H12.4c-3.2,0-8.8-0.4-11.3-3.1c-0.8-0.9-1.2-2-1.1-3.2l0-7.8c0-0.2,0-0.4,0-0.6
			v-0.1c0-1.7,2.4-2.5,3.5-1.2c0.4,0.4,0.5,1,0.4,1.6v0.1c0.3,0.5,2.7,1.9,8.5,1.9h237.2c5.6,0,8.1-1.4,8.4-1.9v-0.2
			c-0.1-0.5,0.1-1.1,0.4-1.5c1-1.3,3.4-0.5,3.5,1.2c0,0.3,0,0.6,0,0.9v7.9c0.1,0.9-0.2,2-1.1,2.9
			C258.5,188.5,252.8,188.9,249.6,188.9z M3.9,179v3.8c0.2,0.7,2.6,2.2,8.5,2.2h237.2c5.8,0,8.3-1.5,8.5-2l0-4
			c-2.1,0.8-5,1.3-8.4,1.3H12.4C8.9,180.3,6,179.9,3.9,179z"/>
	</g>
</g>
</svg>
